<svg width="47" height="47" viewBox="0 0 300 200" fill="none" xmlns="http://www.w3.org/2000/svg">
<g clip-path="url(#clip0_17_13)">
<path d="M150.019 139.758C98.9001 139.814 48.1806 142.682 0.0188904 148.243L0.0188904 199.981H299.981V148.243C251.822 142.677 201.103 139.803 149.981 139.743L150.019 139.758Z" fill="#1674CB"/>
<path d="M150.019 138.435C98.9229 138.49 48.2048 141.356 0.0188817 146.912L0.0187683 149.536L0.168806 149.519C48.2792 143.963 98.9594 141.095 150.018 141.042C201.076 141.101 251.756 143.972 299.866 149.534L300.016 149.551L300.016 146.927C251.868 141.364 201.153 138.435 150.019 138.435Z" fill="white"/>
<path d="M54.0249 42.1013L69.7694 41.4271C76.2018 36.9146 80.5744 37.6557 84.9509 37.5797C87.5499 34.6776 89.1648 32.421 90.5064 30.554C98.8246 41.1965 103.564 55.4104 116.1 62.0658C133.564 71.325 172.714 61.141 192.328 69.5034C225.975 62.7045 236.017 106.113 261.64 119.277C249.169 127.081 238.02 124.318 230.087 118.638C210.476 104.602 218.398 99.7528 200.703 80.5805C201.784 84.3787 203.549 88.5586 203.487 92.3568C203.402 97.5949 200.163 101.469 200.502 105.346C200.981 110.822 206.155 113.154 214.87 116.454C218.948 126.023 222.75 135.69 225.997 145.562C225.952 147.505 225.803 149.447 224.451 151.389C222.637 151.539 220.921 151.499 219.179 151.508C219.092 149.895 219.814 148.205 221.122 147.268C218.777 140.541 218.04 133.991 210.495 126.985C207.271 123.987 197.052 121.316 184.448 118.424L186.224 119.923C185.982 123.506 185.71 127.002 185.392 130.358L158.873 151.435L153.404 151.248C153.675 149.778 152.799 148.093 156.293 147.227L176.455 127.749L171.958 115.254C162.438 111.69 160.235 104.525 160.575 96.1048C146.746 98.8535 136.678 104.824 119.003 104.264C118.237 102.832 117.707 101.046 116.394 100.432C122.652 115.976 129.429 131.468 134.595 147.182C134.517 148.403 134.429 149.624 133.54 150.845L126.65 150.901C125.707 148.618 128.256 147.28 129.099 146.906C125.49 132.163 114.545 119.034 103.736 105.901C92.0805 105.336 81.7215 108.081 71.3775 110.84C66.8991 113.94 62.8477 117.715 59.1137 122C56.6194 123.123 54.0117 122.369 52.2317 121.778C57.2468 116.782 61.6232 111.914 67.2695 106.793C78.7509 101.661 85.7464 99.9338 94.8696 96.5967C81.9784 80.4553 84.0041 64.2497 77.088 56.3094C73.1954 51.8499 66.5325 51.6798 61.4191 49.0192C55.4743 45.9277 53.339 43.2709 54.0306 42.1258L54.0249 42.1013Z" fill="#1A1A1A"/>
<path d="M73.904 42.1013C74.6323 41.5711 74.994 41.1693 75.8662 40.6742C76.3503 40.3993 78.0136 40.2906 78.5952 40.6512C79.2713 41.0707 80.0442 41.6757 80.9558 42.1304C78.093 43.2249 76.3757 43.0113 73.904 42.1013Z" fill="white"/>
<path d="M77.2676 42.9785C77.9956 42.9785 78.5858 42.3827 78.5858 41.6478C78.5858 40.9128 77.9956 40.3171 77.2676 40.3171C76.5395 40.3171 75.9493 40.9128 75.9493 41.6478C75.9493 42.3827 76.5395 42.9785 77.2676 42.9785Z" fill="#1A1A1A"/>
<path d="M90.6084 33.4467C91.0083 37.0525 89.9149 39.5729 88.7982 41.3114C92.6946 41.463 91.2774 35.0151 90.6084 33.4467Z" fill="white"/>
<path d="M89.777 43.424C89.9195 43.9962 90.0253 44.6085 90.0922 45.2494L93.3843 44.9946L89.777 43.424ZM90.1565 46.0771C90.1942 46.7581 90.1829 47.4588 90.1338 48.1648L94.9335 47.8175L90.1565 46.0771ZM90.0862 48.76C90.0786 48.8696 90.0635 48.9796 90.0559 49.0892C89.9852 49.6652 89.8874 50.2374 89.7638 50.796L95.1379 50.4078L90.0862 48.76ZM89.6081 51.4176C89.4372 52.079 89.2305 52.7143 88.9928 53.3103L94.6013 53.0239L89.6081 51.4176ZM88.8125 53.7336C88.5344 54.3677 88.2211 54.9456 87.8813 55.4547L93.2026 55.1895L88.8125 53.7336Z" fill="white"/>
<path d="M251.115 113.303C251.447 114.701 252.297 116.11 251.938 116.638C250.178 117.104 248.664 116.5 247.596 116.95C248.351 118.046 249.739 119.003 250.575 120.098C249.304 121.563 247.826 121.575 246.792 122.967C251.316 122.945 256.248 121.682 259.373 119.274C256.769 118.228 252.65 114.648 251.112 113.299L251.115 113.303Z" fill="white"/>
</g>
<defs>
<clipPath id="clip0_17_13">
<rect width="300" height="200" fill="white"/>
</clipPath>
</defs>
</svg>
